<?xml version="1.0" encoding="utf-8"?>
<!-- Generator: Adobe Illustrator 16.0.0, SVG Export Plug-In . SVG Version: 6.00 Build 0)  -->
<!DOCTYPE svg PUBLIC "-//W3C//DTD SVG 1.0//EN" "http://www.w3.org/TR/2001/REC-SVG-20010904/DTD/svg10.dtd">
<svg version="1.0" id="Layer_1" xmlns="http://www.w3.org/2000/svg" xmlns:xlink="http://www.w3.org/1999/xlink" x="0px" y="0px"
	 width="20px" height="20px" viewBox="0 0 20 20" enable-background="new 0 0 20 20" xml:space="preserve">
<path fill="none" stroke="#999999" stroke-width="1.2" stroke-linecap="round" stroke-linejoin="round" d="M16.25,11.25H3.75
	c-0.345,0-0.625,0.279-0.625,0.625V15c0,0.346,0.28,0.625,0.625,0.625h12.5c0.346,0,0.625-0.279,0.625-0.625v-3.125
	C16.875,11.529,16.596,11.25,16.25,11.25z"/>
<path fill="none" stroke="#999999" stroke-width="1.2" stroke-linecap="round" stroke-linejoin="round" d="M16.25,4.375H3.75
	c-0.345,0-0.625,0.28-0.625,0.625v3.125c0,0.345,0.28,0.625,0.625,0.625h12.5c0.346,0,0.625-0.28,0.625-0.625V5
	C16.875,4.655,16.596,4.375,16.25,4.375z"/>
</svg>
