<svg width="152" height="30" viewBox="0 0 152 30" fill="none" xmlns="http://www.w3.org/2000/svg">
<path d="M38.6213 16.4802C38.6213 15.3469 38.8474 14.3535 39.2996 13.5002C39.7651 12.6335 40.4034 11.9669 41.2147 11.5002C42.0259 11.0335 42.9569 10.8002 44.0075 10.8002C45.3374 10.8002 46.4346 11.1202 47.299 11.7602C48.1768 12.3869 48.7686 13.2869 49.0745 14.4602H46.6208C46.4213 13.9135 46.1021 13.4869 45.6632 13.1802C45.2244 12.8735 44.6724 12.7202 44.0075 12.7202C43.0765 12.7202 42.3318 13.0535 41.7732 13.7202C41.228 14.3735 40.9553 15.2935 40.9553 16.4802C40.9553 17.6669 41.228 18.5935 41.7732 19.2602C42.3318 19.9269 43.0765 20.2602 44.0075 20.2602C45.3241 20.2602 46.1952 19.6802 46.6208 18.5202H49.0745C48.7553 19.6402 48.1568 20.5335 47.2791 21.2002C46.4013 21.8535 45.3108 22.1802 44.0075 22.1802C42.9569 22.1802 42.0259 21.9469 41.2147 21.4802C40.4034 21.0002 39.7651 20.3335 39.2996 19.4802C38.8474 18.6135 38.6213 17.6135 38.6213 16.4802Z" fill="white"/>
<path d="M55.3106 22.1802C54.2733 22.1802 53.3357 21.9469 52.4978 21.4802C51.66 21.0002 51.0017 20.3335 50.5229 19.4802C50.0442 18.6135 49.8048 17.6135 49.8048 16.4802C49.8048 15.3602 50.0508 14.3669 50.5429 13.5002C51.0349 12.6335 51.7065 11.9669 52.5577 11.5002C53.4088 11.0335 54.3597 10.8002 55.4104 10.8002C56.461 10.8002 57.4119 11.0335 58.263 11.5002C59.1142 11.9669 59.7858 12.6335 60.2778 13.5002C60.7699 14.3669 61.0159 15.3602 61.0159 16.4802C61.0159 17.6002 60.7633 18.5935 60.2579 19.4602C59.7525 20.3269 59.061 21.0002 58.1832 21.4802C57.3188 21.9469 56.3612 22.1802 55.3106 22.1802ZM55.3106 20.2002C55.8958 20.2002 56.441 20.0602 56.9464 19.7802C57.4651 19.5002 57.884 19.0802 58.2032 18.5202C58.5224 17.9602 58.6819 17.2802 58.6819 16.4802C58.6819 15.6802 58.529 15.0069 58.2231 14.4602C57.9172 13.9002 57.5116 13.4802 57.0062 13.2002C56.5009 12.9202 55.9556 12.7802 55.3705 12.7802C54.7853 12.7802 54.24 12.9202 53.7347 13.2002C53.2426 13.4802 52.8503 13.9002 52.5577 14.4602C52.2651 15.0069 52.1188 15.6802 52.1188 16.4802C52.1188 17.6669 52.418 18.5869 53.0165 19.2402C53.6283 19.8802 54.393 20.2002 55.3106 20.2002Z" fill="white"/>
<path d="M61.7081 16.4402C61.7081 15.3335 61.9341 14.3535 62.3863 13.5002C62.8518 12.6469 63.4768 11.9869 64.2615 11.5202C65.0594 11.0402 65.9438 10.8002 66.9147 10.8002C67.6328 10.8002 68.3377 10.9602 69.0292 11.2802C69.7341 11.5869 70.2927 12.0002 70.7049 12.5202V7.2002H72.999V22.0002H70.7049V20.3402C70.3325 20.8735 69.8139 21.3135 69.1489 21.6602C68.4973 22.0069 67.7459 22.1802 66.8947 22.1802C65.9372 22.1802 65.0594 21.9402 64.2615 21.4602C63.4768 20.9669 62.8518 20.2869 62.3863 19.4202C61.9341 18.5402 61.7081 17.5469 61.7081 16.4402ZM70.7049 16.4802C70.7049 15.7202 70.5453 15.0602 70.2262 14.5002C69.9203 13.9402 69.5147 13.5135 69.0093 13.2202C68.5039 12.9269 67.9587 12.7802 67.3735 12.7802C66.7883 12.7802 66.2431 12.9269 65.7377 13.2202C65.2323 13.5002 64.8201 13.9202 64.5009 14.4802C64.195 15.0269 64.0421 15.6802 64.0421 16.4402C64.0421 17.2002 64.195 17.8669 64.5009 18.4402C64.8201 19.0135 65.2323 19.4535 65.7377 19.7602C66.2564 20.0535 66.8016 20.2002 67.3735 20.2002C67.9587 20.2002 68.5039 20.0535 69.0093 19.7602C69.5147 19.4669 69.9203 19.0402 70.2262 18.4802C70.5453 17.9069 70.7049 17.2402 70.7049 16.4802Z" fill="white"/>
<path d="M85.2622 16.2202C85.2622 16.6335 85.2356 17.0069 85.1824 17.3402H76.784C76.8505 18.2202 77.1763 18.9269 77.7615 19.4602C78.3466 19.9935 79.0648 20.2602 79.9159 20.2602C81.1394 20.2602 82.0039 19.7469 82.5093 18.7202H84.9629C84.6305 19.7335 84.0254 20.5669 83.1476 21.2202C82.2832 21.8602 81.2059 22.1802 79.9159 22.1802C78.8653 22.1802 77.9211 21.9469 77.0832 21.4802C76.2587 21.0002 75.607 20.3335 75.1282 19.4802C74.6628 18.6135 74.43 17.6135 74.43 16.4802C74.43 15.3469 74.6561 14.3535 75.1083 13.5002C75.5738 12.6335 76.2188 11.9669 77.0433 11.5002C77.8812 11.0335 78.8387 10.8002 79.9159 10.8002C80.9533 10.8002 81.8775 11.0269 82.6888 11.4802C83.5 11.9335 84.1317 12.5735 84.5839 13.4002C85.0361 14.2135 85.2622 15.1535 85.2622 16.2202ZM82.8883 15.5002C82.875 14.6602 82.5758 13.9869 81.9906 13.4802C81.4054 12.9735 80.6806 12.7202 79.8162 12.7202C79.0315 12.7202 78.3599 12.9735 77.8014 13.4802C77.2428 13.9735 76.9103 14.6469 76.8039 15.5002H82.8883Z" fill="white"/>
<path d="M87.6199 22.1402C87.2076 22.1402 86.8618 22.0002 86.5825 21.7202C86.3032 21.4402 86.1636 21.0935 86.1636 20.6802C86.1636 20.2669 86.3032 19.9202 86.5825 19.6402C86.8618 19.3602 87.2076 19.2202 87.6199 19.2202C88.0188 19.2202 88.358 19.3602 88.6372 19.6402C88.9165 19.9202 89.0562 20.2669 89.0562 20.6802C89.0562 21.0935 88.9165 21.4402 88.6372 21.7202C88.358 22.0002 88.0188 22.1402 87.6199 22.1402Z" fill="white"/>
<path d="M92.9903 12.6002C93.3759 12.0935 93.9013 11.6669 94.5662 11.3202C95.2312 10.9735 95.9826 10.8002 96.8204 10.8002C97.778 10.8002 98.6491 11.0402 99.4337 11.5202C100.232 11.9869 100.857 12.6469 101.309 13.5002C101.761 14.3535 101.987 15.3335 101.987 16.4402C101.987 17.5469 101.761 18.5402 101.309 19.4202C100.857 20.2869 100.232 20.9669 99.4337 21.4602C98.6491 21.9402 97.778 22.1802 96.8204 22.1802C95.9826 22.1802 95.2378 22.0135 94.5862 21.6802C93.9345 21.3335 93.4025 20.9069 92.9903 20.4002V27.2402H90.7161V10.9802H92.9903V12.6002ZM99.6731 16.4402C99.6731 15.6802 99.5135 15.0269 99.1943 14.4802C98.8884 13.9202 98.4762 13.5002 97.9575 13.2202C97.4521 12.9269 96.9069 12.7802 96.3217 12.7802C95.7498 12.7802 95.2046 12.9269 94.6859 13.2202C94.1805 13.5135 93.7683 13.9402 93.4491 14.5002C93.1432 15.0602 92.9903 15.7202 92.9903 16.4802C92.9903 17.2402 93.1432 17.9069 93.4491 18.4802C93.7683 19.0402 94.1805 19.4669 94.6859 19.7602C95.2046 20.0535 95.7498 20.2002 96.3217 20.2002C96.9069 20.2002 97.4521 20.0535 97.9575 19.7602C98.4762 19.4535 98.8884 19.0135 99.1943 18.4402C99.5135 17.8669 99.6731 17.2002 99.6731 16.4402Z" fill="white"/>
<path d="M105.712 12.5802C106.045 12.0202 106.484 11.5869 107.029 11.2802C107.587 10.9602 108.246 10.8002 109.004 10.8002V13.1602H108.425C107.534 13.1602 106.856 13.3869 106.391 13.8402C105.938 14.2935 105.712 15.0802 105.712 16.2002V22.0002H103.438V10.9802H105.712V12.5802Z" fill="white"/>
<path d="M120.37 16.2202C120.37 16.6335 120.344 17.0069 120.291 17.3402H111.892C111.959 18.2202 112.284 18.9269 112.87 19.4602C113.455 19.9935 114.173 20.2602 115.024 20.2602C116.248 20.2602 117.112 19.7469 117.617 18.7202H120.071C119.739 19.7335 119.134 20.5669 118.256 21.2202C117.391 21.8602 116.314 22.1802 115.024 22.1802C113.973 22.1802 113.029 21.9469 112.191 21.4802C111.367 21.0002 110.715 20.3335 110.236 19.4802C109.771 18.6135 109.538 17.6135 109.538 16.4802C109.538 15.3469 109.764 14.3535 110.216 13.5002C110.682 12.6335 111.327 11.9669 112.151 11.5002C112.989 11.0335 113.947 10.8002 115.024 10.8002C116.061 10.8002 116.986 11.0269 117.797 11.4802C118.608 11.9335 119.24 12.5735 119.692 13.4002C120.144 14.2135 120.37 15.1535 120.37 16.2202ZM117.996 15.5002C117.983 14.6602 117.684 13.9869 117.099 13.4802C116.514 12.9735 115.789 12.7202 114.924 12.7202C114.14 12.7202 113.468 12.9735 112.91 13.4802C112.351 13.9735 112.018 14.6469 111.912 15.5002H117.996Z" fill="white"/>
<path d="M125.8 22.1802C124.936 22.1802 124.158 22.0269 123.466 21.7202C122.788 21.4002 122.249 20.9735 121.85 20.4402C121.451 19.8935 121.239 19.2869 121.212 18.6202H123.566C123.606 19.0869 123.825 19.4802 124.224 19.8002C124.636 20.1069 125.148 20.2602 125.76 20.2602C126.399 20.2602 126.891 20.1402 127.236 19.9002C127.596 19.6469 127.775 19.3269 127.775 18.9402C127.775 18.5269 127.576 18.2202 127.177 18.0202C126.791 17.8202 126.172 17.6002 125.321 17.3602C124.497 17.1335 123.825 16.9135 123.307 16.7002C122.788 16.4869 122.336 16.1602 121.95 15.7202C121.578 15.2802 121.391 14.7002 121.391 13.9802C121.391 13.3935 121.564 12.8602 121.91 12.3802C122.256 11.8869 122.748 11.5002 123.386 11.2202C124.038 10.9402 124.783 10.8002 125.621 10.8002C126.871 10.8002 127.875 11.1202 128.633 11.7602C129.404 12.3869 129.816 13.2469 129.87 14.3402H127.596C127.556 13.8469 127.356 13.4535 126.997 13.1602C126.638 12.8669 126.153 12.7202 125.541 12.7202C124.942 12.7202 124.484 12.8335 124.164 13.0602C123.845 13.2869 123.686 13.5869 123.686 13.9602C123.686 14.2535 123.792 14.5002 124.005 14.7002C124.218 14.9002 124.477 15.0602 124.783 15.1802C125.089 15.2869 125.541 15.4269 126.139 15.6002C126.937 15.8135 127.589 16.0335 128.094 16.2602C128.613 16.4735 129.058 16.7935 129.431 17.2202C129.803 17.6469 129.996 18.2135 130.009 18.9202C130.009 19.5469 129.836 20.1069 129.491 20.6002C129.145 21.0935 128.653 21.4802 128.014 21.7602C127.389 22.0402 126.651 22.1802 125.8 22.1802Z" fill="white"/>
<path d="M135.658 22.1802C134.794 22.1802 134.016 22.0269 133.324 21.7202C132.646 21.4002 132.107 20.9735 131.709 20.4402C131.31 19.8935 131.097 19.2869 131.07 18.6202H133.424C133.464 19.0869 133.683 19.4802 134.082 19.8002C134.495 20.1069 135.007 20.2602 135.618 20.2602C136.257 20.2602 136.749 20.1402 137.095 19.9002C137.454 19.6469 137.633 19.3269 137.633 18.9402C137.633 18.5269 137.434 18.2202 137.035 18.0202C136.649 17.8202 136.031 17.6002 135.18 17.3602C134.355 17.1335 133.683 16.9135 133.165 16.7002C132.646 16.4869 132.194 16.1602 131.808 15.7202C131.436 15.2802 131.25 14.7002 131.25 13.9802C131.25 13.3935 131.423 12.8602 131.768 12.3802C132.114 11.8869 132.606 11.5002 133.245 11.2202C133.896 10.9402 134.641 10.8002 135.479 10.8002C136.729 10.8002 137.733 11.1202 138.491 11.7602C139.262 12.3869 139.675 13.2469 139.728 14.3402H137.454C137.414 13.8469 137.214 13.4535 136.855 13.1602C136.496 12.8669 136.011 12.7202 135.399 12.7202C134.801 12.7202 134.342 12.8335 134.023 13.0602C133.703 13.2869 133.544 13.5869 133.544 13.9602C133.544 14.2535 133.65 14.5002 133.863 14.7002C134.076 14.9002 134.335 15.0602 134.641 15.1802C134.947 15.2869 135.399 15.4269 135.997 15.6002C136.795 15.8135 137.447 16.0335 137.952 16.2602C138.471 16.4735 138.917 16.7935 139.289 17.2202C139.661 17.6469 139.854 18.2135 139.868 18.9202C139.868 19.5469 139.695 20.1069 139.349 20.6002C139.003 21.0935 138.511 21.4802 137.873 21.7602C137.248 22.0402 136.51 22.1802 135.658 22.1802Z" fill="white"/>
<path d="M146.295 22.1802C145.257 22.1802 144.32 21.9469 143.482 21.4802C142.644 21.0002 141.986 20.3335 141.507 19.4802C141.028 18.6135 140.789 17.6135 140.789 16.4802C140.789 15.3602 141.035 14.3669 141.527 13.5002C142.019 12.6335 142.691 11.9669 143.542 11.5002C144.393 11.0335 145.344 10.8002 146.394 10.8002C147.445 10.8002 148.396 11.0335 149.247 11.5002C150.098 11.9669 150.77 12.6335 151.262 13.5002C151.754 14.3669 152 15.3602 152 16.4802C152 17.6002 151.747 18.5935 151.242 19.4602C150.737 20.3269 150.045 21.0002 149.167 21.4802C148.303 21.9469 147.345 22.1802 146.295 22.1802ZM146.295 20.2002C146.88 20.2002 147.425 20.0602 147.93 19.7802C148.449 19.5002 148.868 19.0802 149.187 18.5202C149.506 17.9602 149.666 17.2802 149.666 16.4802C149.666 15.6802 149.513 15.0069 149.207 14.4602C148.901 13.9002 148.496 13.4802 147.99 13.2002C147.485 12.9202 146.94 12.7802 146.354 12.7802C145.769 12.7802 145.224 12.9202 144.719 13.2002C144.227 13.4802 143.834 13.9002 143.542 14.4602C143.249 15.0069 143.103 15.6802 143.103 16.4802C143.103 17.6669 143.402 18.5869 144.001 19.2402C144.612 19.8802 145.377 20.2002 146.295 20.2002Z" fill="white"/>
<path fill-rule="evenodd" clip-rule="evenodd" d="M12.9571 0L25.9141 7.5V22.5L12.9571 30L9.44969 27.9698V22.5698L12.9571 24.6L21.2496 19.8V10.2L12.9571 5.4L4.66454 10.2V19.2H4.662V25.1985L0 22.5V7.5L12.9571 0Z" fill="white"/>
</svg>
