<svg width="16" height="16" viewBox="0 0 16 16" fill="none" xmlns="http://www.w3.org/2000/svg">
<path d="M13.5438 9.53755C12.5621 9.81283 11.5248 9.82185 10.5385 9.56369C9.55223 9.30553 8.65241 8.78949 7.9315 8.06857C7.21058 7.34765 6.69454 6.44783 6.43638 5.46152C6.17822 4.47522 6.18724 3.43797 6.46251 2.4563C5.49468 2.72568 4.61431 3.24394 3.9091 3.95944C3.2039 4.67495 2.69846 5.56274 2.44313 6.53438C2.18781 7.50602 2.19151 8.52759 2.45387 9.49736C2.71623 10.4671 3.22809 11.3512 3.93847 12.0616C4.64885 12.772 5.53295 13.2838 6.50271 13.5462C7.47247 13.8086 8.49405 13.8123 9.46569 13.5569C10.4373 13.3016 11.3251 12.7962 12.0406 12.091C12.7561 11.3858 13.2744 10.5054 13.5438 9.53755Z" stroke="white" stroke-opacity="0.3" stroke-linecap="round" stroke-linejoin="round"/>
</svg>
